<svg viewBox="0 0 40 40" xmlns="http://www.w3.org/2000/svg" role="img" aria-label="Sovra mark">
  <defs>
    <linearGradient id="g" x1="6" y1="4" x2="34" y2="36" gradientUnits="userSpaceOnUse">
      <stop offset="0%" stop-color="#5B7C99"/>
      <stop offset="100%" stop-color="#2F4858"/>
    </linearGradient>
    <style>
      .a{animation:f 400ms cubic-bezier(0.16,1,0.3,1) both}
      .a1{animation-delay:0ms}.a2{animation-delay:100ms}.a3{animation-delay:200ms}
      @keyframes f{from{opacity:0}to{opacity:1}}
    </style>
  </defs>
  <rect width="40" height="40" rx="4" fill="#0F172A"/>
  <path class="a a1" d="M28 11a7 6 0 0 0-6-3h-4a5 4 0 0 0 0 8h2v-3h-2a1 1 0 0 1 0-2h4a4 3 0 0 1 4 2z" fill="url(#g)"/>
  <path class="a a2" d="M14 18h12a4 3 0 0 1 0 6H14v-2h12a1 1 0 0 0 0-2H14z" fill="url(#g)" fill-opacity="0.7"/>
  <path class="a a3" d="M12 29a5 4 0 0 0 6 3h4a5 4 0 0 0 4-7h-2a3 2 0 0 1-2 4h-4a4 3 0 0 1-4-2z" fill="url(#g)" fill-opacity="0.5"/>
</svg>
